<?xml version="1.0" encoding="iso-8859-1"?>
<!-- Generator: Adobe Illustrator 16.0.0, SVG Export Plug-In . SVG Version: 6.00 Build 0)  -->
<!DOCTYPE svg PUBLIC "-//W3C//DTD SVG 1.1//EN" "http://www.w3.org/Graphics/SVG/1.1/DTD/svg11.dtd">
<svg version="1.1" id="Capa_1" xmlns="http://www.w3.org/2000/svg" xmlns:xlink="http://www.w3.org/1999/xlink" x="0px" y="0px"
	 width="354.069px" height="354.069px" viewBox="0 0 354.069 354.069" style="enable-background:new 0 0 354.069 354.069;"
	 xml:space="preserve" fill="#fff" >
<g>
	<path d="M129.605,310.253C65.166,290.04,18.284,229.77,18.284,158.747c0-12.838,1.551-25.321,4.441-37.285
		c3.064,0.593,6.182,0.904,9.317,0.904c13.748,0,26.744-5.787,35.977-15.562l61.11,35.282c-0.979,3.88-1.509,7.941-1.509,12.122
		c0,23.345,16.279,42.944,38.075,48.083v73.667C148.371,280.049,134.55,293.271,129.605,310.253z M207.06,154.208
		c0,16.561-13.473,30.033-30.031,30.033c-16.561,0-30.033-13.472-30.033-30.033c0-16.56,13.473-30.032,30.033-30.032
		C193.588,124.176,207.06,137.648,207.06,154.208z M177.043,354.069c-16.559,0-30.031-13.473-30.031-30.032
		c0-16.561,13.473-30.033,30.031-30.033c16.561,0,30.035,13.473,30.035,30.033C207.078,340.597,193.603,354.069,177.043,354.069z
		 M224.479,310.239c-4.947-16.974-18.767-30.192-36.086-34.281v-73.676c21.782-5.147,38.042-24.741,38.042-48.074
		c0-4.175-0.524-8.229-1.507-12.105l61.144-35.298c9.23,9.775,22.228,15.562,35.976,15.562c3.123,0,6.238-0.311,9.292-0.9
		c2.895,11.961,4.438,24.444,4.438,37.281C335.778,229.76,288.906,290.018,224.479,310.239z M348.018,57.932
		c8.278,14.343,3.35,32.747-10.992,41.025c-4.565,2.638-9.747,4.031-14.979,4.031c-10.717,0-20.696-5.757-26.049-15.023
		c-4.009-6.946-5.075-15.04-2.998-22.789c2.077-7.75,7.045-14.224,13.993-18.235c4.565-2.637,9.743-4.031,14.978-4.031
		C332.688,42.911,342.669,48.666,348.018,57.932z M283.903,41.477c-4.459,5.394-7.755,11.725-9.618,18.688
		c-2.413,9.006-2.235,18.296,0.401,27.004l-60.268,34.796c-9.069-10.5-22.462-17.166-37.391-17.166
		c-14.925,0-28.312,6.66-37.379,17.152L79.402,87.168c2.639-8.708,2.815-17.997,0.402-27.003c-1.865-6.968-5.166-13.303-9.628-18.7
		C98.403,15.725,135.908,0,177.028,0C218.158-0.001,255.675,15.727,283.903,41.477z M6.072,57.932
		c5.348-9.264,15.329-15.02,26.046-15.02c5.23,0,10.411,1.393,14.976,4.029c6.952,4.011,11.917,10.485,13.994,18.235
		c2.079,7.749,1.01,15.842-2.997,22.789c-5.353,9.267-15.333,15.023-26.048,15.023c-5.232,0-10.415-1.394-14.979-4.031
		C10.118,94.947,5.146,88.471,3.07,80.723C0.997,72.974,2.059,64.882,6.072,57.932z"/>
</g>
<g>
</g>
<g>
</g>
<g>
</g>
<g>
</g>
<g>
</g>
<g>
</g>
<g>
</g>
<g>
</g>
<g>
</g>
<g>
</g>
<g>
</g>
<g>
</g>
<g>
</g>
<g>
</g>
<g>
</g>
</svg>
